/* XPM */
static char *d62e783a624d44b2bbcb88c51432a14fdxZH28oo2IGn8X8J[] = {
/* columns rows colors chars-per-pixel */
"50 50 5 1 ",
"  c None",
". c #141B1B",
"X c #E46D3A",
"o c #FFAD5D",
"O c #F2EAF1",
/* pixels */
"               ....................               ",
"               ....................               ",
"               ....................               ",
"               ....................               ",
"               ....................               ",
"          .....OOOOOOOOOooooooooooo.....          ",
"          .....OOOOOOOOOooooooooooo.....          ",
"          .....OOOOOOOOOooooooooooo.....          ",
"          .....OOOOOOOOOooooooooooo.....          ",
"          .....OOOOOOOOOooooooooooo.....          ",
"     .....OOOOOXXXXXXXXXXXXXXXXXXXXooooo.....     ",
"     .....OOOOOXXXXXXXXXXXXXXXXXXXXooooo.....     ",
"     .....OOOOOXXXXXXXXXXXXXXXXXXXXooooo.....     ",
"     .....OOOOOXXXXXXXXXXXXXXXXXXXXooooo.....     ",
"     .....OOOOOXXXXXXXXXXXXXXXXXXXXooooo.....     ",
".....oooooXXXXXXXXXXXXXXXXXXXXXXXXXXXXXXooooo.....",
".....oooooXXXXXXXXXXXXXXXXXXXXXXXXXXXXXXooooo.....",
".....oooooXXXXXXXXXXXXXXXXXXXXXXXXXXXXXXooooo.....",
".....oooooXXXXXXXXXXXXXXXXXXXXXXXXXXXXXXooooo.....",
".....oooooXXXXXXXXXXXXXXXXXXXXXXXXXXXXXXooooo.....",
".....oooooXXXXXXXXXXXXXXXXXXXXXXXXXXXXXXooooo.....",
".....oooooXXXXXXXXXXXXXXXXXXXXXXXXXXXXXXooooo.....",
".....oooooXXXXXXXXXXXXXXXXXXXXXXXXXXXXXXooooo.....",
".....oooooXXXXXXXXXXXXXXXXXXXXXXXXXXXXXXooooo.....",
".....oooooXXXXXXXXXXXXXXXXXXXXXXXXXXXXXXooooo.....",
".....oooooXXXXXXXXXXXXXXXXXXXXXXXXXXXXXXooooo.....",
".....oooooXXXXXXXXXXXXXXXXXXXXXXXXXXXXXXooooo.....",
".....oooooXXXXXXXXXXXXXXXXXXXXXXXXXXXXXXooooo.....",
".....oooooXXXXXXXXXXXXXXXXXXXXXXXXXXXXXXooooo.....",
".....oooooXXXXXXXXXXXXXXXXXXXXXXXXXXXXXXooooo.....",
".....oooooXXXXXXXXXXXXXXXXXXXXXXXXXXXXXXooooo.....",
".....oooooXXXXXXXXXXXXXXXXXXXXXXXXXXXXXXooooo.....",
".....oooooXXXXXXXXXXXXXXXXXXXXXXXXXXXXXXooooo.....",
".....oooooXXXXXXXXXXXXXXXXXXXXXXXXXXXXXXooooo.....",
".....oooooXXXXXXXXXXXXXXXXXXXXXXXXXXXXXXooooo.....",
"     .....oooooXXXXXXXXXXXXXXXXXXXXooooo.....     ",
"     .....oooooXXXXXXXXXXXXXXXXXXXXooooo.....     ",
"     .....oooooXXXXXXXXXXXXXXXXXXXXooooo.....     ",
"     .....oooooXXXXXXXXXXXXXXXXXXXXooooo.....     ",
"     .....oooooXXXXXXXXXXXXXXXXXXXXooooo.....     ",
"          .....oooooooooooooooooooo.....          ",
"          .....oooooooooooooooooooo.....          ",
"          .....oooooooooooooooooooo.....          ",
"          .....oooooooooooooooooooo.....          ",
"          .....oooooooooooooooooooo.....          ",
"               ....................               ",
"               ....................               ",
"               ....................               ",
"               ....................               ",
"               ....................               "
};
