/* XPM */
static char *ceee01b1822e4e18f00398fe75e18be039YE9qujr1FWy8gm[] = {
/* columns rows colors chars-per-pixel */
"50 50 34 1 ",
"  c #141B1B",
". c #5E5E22",
"X c #5F5F22",
"o c #606B2A",
"O c #616C2A",
"+ c #616C2B",
"@ c #74612F",
"# c #756833",
"$ c #727759",
"% c #89633C",
"& c #89643C",
"* c #8A653C",
"= c #E46D3A",
"- c #BD7844",
"; c #BE7944",
": c #867361",
"> c #EB7D43",
", c #838026",
"< c #869332",
"1 c #879432",
"2 c #A8A129",
"3 c #ADBC3A",
"4 c #BB8869",
"5 c #F18D4B",
"6 c #F28D4C",
"7 c #FFAD5D",
"8 c #E78C67",
"9 c #EE9C70",
"0 c #838286",
"q c #848387",
"w c #B7978E",
"e c #EBAB95",
"r c #F9CBA6",
"t c #F2EAF1",
/* pixels */
"33333333333333333333333333333333333333333333333333",
"33333333333333333333333333333333333333333333333333",
"33333333333333333333333333333333333333333333333333",
"33333333333333333333333333333333333333333333333333",
"33333333333333333333333333333333333333333333333333",
"33333333333333333333333333333333333333333333333333",
"33333333333333333333333333333333333333333333333333",
"33333333333333333333333333333333333333333333333333",
"33333333333333333333333333333333333333333333333333",
"33333333333333333333333332222222223333333333333333",
"3333333333333333333o            .23333333333333333",
"3333333333333333333o            .23333333333333333",
"3333333333333333333o            O32223333333333333",
"3333333333333333<OO$00000:&&&&&&#O.,23333333333333",
"3333333333333333o  qtttttr777777&  X23333333333333",
"3333333333333333o  qtttttr777777&  X23333333333333",
"33333333333331OO$00weeeee9555555-%&@..,22333333333",
"3333333333333O  qtte============677%  X22333333333",
"3333333333333O  qtte============677%  .22333333333",
"3333333333OOO#&&4ee8============>66;&&#oO333333333",
"3333333333   &775==================677%  333333333",
"3333333333   &775==================677%  333333333",
"3333333333   &775==================677%  333333333",
"3333333333   &775==================677%  333333333",
"3333333333   &775==================677%  333333333",
"3333332222   &775==================677&  333333333",
"3333332222   *775==================677&  333333333",
"3333332222   *775==================677&  333333333",
"3332223333   &775==================677&  333333333",
"3332223333   &775==================677&  333333333",
"3332223333   &775==================677&  333333333",
"3333332223   &775==================677&  333333333",
"3333332223OOO#&&;555=============65;&&#OO333333333",
"3333332223333O  &775============677&  +33333333333",
"3333332222223o  &775============577&  +33333333333",
"33333322222231OO#&&;555555555555;&&#OO133333333333",
"3333332222223333o  &777777777777&  +33333333333333",
"3332222222223333o  &777777777777&  +33333333333333",
"33322222222233331oo#&&&&&&&&&%%%#OO133333333333333",
"3332222222223333333o            O33333333333333333",
"3332222222223333333o            +33333333333333333",
"33333333322222223333333333333333333333333333333333",
"33333333322222223333333333333333333333333333333333",
"33333333322222223333333333333333333333333333333333",
"33333333333333333333333333333333333333333333333333",
"33333333333333333333333333333333333333333333333333",
"33333333333333333333333333333333333333333333333333",
"33333333333333333333333333333333333333333333333333",
"33333333333333333333333333333333333333333333333333",
"33333333333333333333333333333333333333333333333333"
};
