/* XPM */
static char *_51a501d786d494c91b5f11788844448rRvIcbPgvz1jF9MI[] = {
/* columns rows colors chars-per-pixel */
"31 31 5 1 ",
"  c None",
". c #141B1B",
"X c #E46D3A",
"o c #FFAD5D",
"O c #F2EAF1",
/* pixels */
"         .............         ",
"         .............         ",
"         .............         ",
"      ...OOOOOOooooooo...      ",
"      ...OOOOOOooooooo...      ",
"      ...OOOOOOooooooo...      ",
"   ...OOOXXXXXXXXXXXXXooo...   ",
"   ...OOOXXXXXXXXXXXXXooo...   ",
"   ...OOOXXXXXXXXXXXXXooo...   ",
"...oooXXXXXXXXXXXXXXXXXXXooo...",
"...oooXXXXXXXXXXXXXXXXXXXooo...",
"...oooXXXXXXXXXXXXXXXXXXXooo...",
"...oooXXXXXXXXXXXXXXXXXXXooo...",
"...oooXXXXXXXXXXXXXXXXXXXooo...",
"...oooXXXXXXXXXXXXXXXXXXXooo...",
"...oooXXXXXXXXXXXXXXXXXXXooo...",
"...oooXXXXXXXXXXXXXXXXXXXooo...",
"...oooXXXXXXXXXXXXXXXXXXXooo...",
"...oooXXXXXXXXXXXXXXXXXXXooo...",
"...oooXXXXXXXXXXXXXXXXXXXooo...",
"...oooXXXXXXXXXXXXXXXXXXXooo...",
"...oooXXXXXXXXXXXXXXXXXXXooo...",
"   ...oooXXXXXXXXXXXXXooo...   ",
"   ...oooXXXXXXXXXXXXXooo...   ",
"   ...oooXXXXXXXXXXXXXooo...   ",
"      ...ooooooooooooo...      ",
"      ...ooooooooooooo...      ",
"      ...ooooooooooooo...      ",
"         .............         ",
"         .............         ",
"         .............         "
};
