/* XPM */
static char *_ca3a96a3a154f0be163904dc391ce2dBgNdnwPZRFjX6n1W[] = {
/* columns rows colors chars-per-pixel */
"47 50 7 1 ",
"  c None",
". c #141B1B",
"X c #543C52",
"o c #8F3E56",
"O c #E0394C",
"+ c #ABC2BC",
"@ c #F2EAF1",
/* pixels */
"                                               ",
"                                               ",
"                                               ",
"         ..........................            ",
"         ..........................            ",
"         ..........................            ",
"         ..........................            ",
"       ..OOOOOOOOOOOOOOOOOOOOOOOOOO...         ",
"       ..OOOOOOOOOOOOOOOOOOOOOOOOOO...         ",
"   ....ooOOOOOOOOOOOOOOOOOOOOOOOOOOooo..       ",
"   ....ooOOOOOOOOOOOOOOOOOOOOOOOOOOooo..       ",
"   ....ooOOOOOOOOOOOOOOOOOOOOOOOOOOooo..       ",
"   ....ooOOOOOOOOOOOOOOOOOOOOOOOOOOooo..       ",
"   ....ooOOOOOOOOOOOOOOOOOOOOOOOOOOooo..       ",
"   ....ooOOOOOOOOOOOOOOOOOOOOOOOOOOooo..       ",
"   ....ooOOOOOOOOOOOOOOOOOOOOOOOOOOooo..       ",
"   ....oo+++@@@@@@@@@@@@@@@@@@@++++ooo..       ",
"   ....oo+++@@@@@@@@@@@@@@@@@@@++++ooo..       ",
"   ....oo+++@@@@@@@@@@@@@@@@@@@++++ooo..       ",
"   ....oo+++@@@@@@@@@@@@@@@@@@@++++ooo..       ",
"   ....oo+++@@@@@@@@@@@@@@@@@@@++++ooo..       ",
"   ....oo+++@@@@@@@@@@@@@@@@@@@++++ooo..       ",
"   ....XX++++++++++++++++++++++++++XXX..       ",
"   ....XX++++++++++++++++++++++++++XXX..       ",
"   ....XX++++++++++++++++++++++++++XXX..       ",
"   ....XX...@@@@@@@......@@@@@@....XXX..       ",
"   ....XX...@@@@@@@......@@@@@@....XXX..       ",
"   ....XX...@@@@@@@......@@@@@@....XXX..       ",
"   ....ooXXX...................XXXXooo..       ",
"   ....ooXXX...................XXXXooo..       ",
"   ....ooXXX...................XXXXooo..       ",
"   ....oooooOOOOOOOOOOOOOOOOOOOooooooo..       ",
"   ....oooooOOOOOOOOOOOOOOOOOOOooooooo..       ",
"   ....oooooOOOOOOOOOOOOOOOOOOOooooooo..       ",
"       ..oooooooooooooooooooooooooo...         ",
"       ..oooooooooooooooooooooooooo...         ",
"       ..oooooooooooooooooooooooooo...         ",
"       ..oooooooooooooooooooooooooo...         ",
"   ......XXXXXXXXXXXXXXXXXXXXXXXXXX.....       ",
"   ......XXXXXXXXXXXXXXXXXXXXXXXXXX.....       ",
"   ......XXXXXXXXXXXXXXXXXXXXXXXXXX.....       ",
"...XXXXXXoooXXXXooooooooooooXXXooooXXXXX....   ",
"...XXXXXXoooXXXXooooooooooooXXXooooXXXXX....   ",
"...ooooooXXXXXXXXXXXXXXXXXXXXXXXXXXooooo....   ",
"...ooooooXXXXXXXXXXXXXXXXXXXXXXXXXXooooo....   ",
"...ooooooXXXXXXXXXXXXXXXXXXXXXXXXXXooooo....   ",
"...ooooooXXXXXXXXXXXXXXXXXXXXXXXXXXooooo....   ",
"   ......XXXXXXXXXX......XXXXXXXXXX.....       ",
"   ......XXXXXXXXXX......XXXXXXXXXX.....       ",
"   ......XXXXXXXXXX......XXXXXXXXXX.....       "
};
