/* XPM */
static char *b23cd21c7fe345f5845fbb4102290475ik4svdy3gpokoFXi[] = {
/* columns rows colors chars-per-pixel */
"50 47 8 1 ",
"  c None",
". c #141B1B",
"X c #E66A3A",
"o c #965340",
"O c #A3754E",
"+ c #8D977F",
"@ c #F38C4C",
"# c #ABC2BC",
/* pixels */
"      oooooo@@@@XXX@@@@@@@@@@@@XXX@@@ooooooo      ",
"      oooooo@@@@XXX@@@@@@@@@@@@XXX@@@ooooooo      ",
"      oooooo@@@@XXX@@@@@@@@@@@@XXX@@@ooooooo      ",
"   ooo@@@@@@@@@@XXX@@@@@@@@@@@++++++++++++@@ooo   ",
"   ooo@@@@@@@@@@X####+++@@@@++#########+++++++o   ",
"   ooo@@@@@@@@@@X####+++@@@@++#########+++++++o   ",
"ooo@@@@@@@@@XXX#######++++++############+++++++ooo",
"ooo@@@@@@@@@XXX#######++++++############+++++++ooo",
"ooo@@@@@@@@@XXX#######++++##############+++++++ooo",
"ooo@@@XXXXXXXXX#######++++##############+++++++ooo",
"ooo@@@XXXXXXXXX++####+++++##############+++++++++o",
"ooo@@@XXXXXXXXX++####+++++##############+++++++++o",
"ooo@@@XX++++++++++++++++++##############+++++++++o",
"oooXX+######++++++++++++++##############+++++++++o",
"oooXX+######++++++++++++++##############+++++++++o",
"ooo++#########++++++++..++++###########++++++++++o",
"ooo++#########++++++++oo++++###########++++++++++o",
"ooo++#########++++++++oo++++++#######++++++++++ooo",
"ooo++#########++++++++oo++++++#######++++++++++ooo",
"ooo++#########+++++++###+++++++++++++++++++++++ooo",
"ooo+++######+++++++#######++++++++++++++++++++Xooo",
"ooo+++######+++++++#######++++++++++++++++++++Xooo",
"oooXX++++++++++++++#######++++++++++++++.XXXXXXooo",
"oooXX++++++++++++++#######++++++++++++++.XXXXXXooo",
"oooXXX+++++++++++OO++###++++++oOOOO+++++++++XXXooo",
"oooXXX+++++++++++OO++###++++++oOOOO+++++++++XXXooo",
"oooXXXXXX...OOOOOOOoo+++++++++oOO######+++++++Xooo",
"oooXXXXXX...OOOOOOOoo+++++++++oOO######+++++++Xooo",
"oooXXXXXX...#######+++++++++ooo#########+++++++ooo",
"oooXXXXXX.###########+++OOOOoo##########+++++++ooo",
"oooXXXXXX.###########+++OOOOoo##########+++++++ooo",
"oooXXXXX#############+++++OOoo##########+++++++++o",
"oooXXXXX#############+++++OOoo##########+++++++++o",
"oooXXXXX#############+++++OOoo##########+++++++++o",
"oooXXXXX#############+++++OOoo##########+++++++++o",
"oooXXXXX###########+++++++OOoo+########++++++++++o",
"oooXXXXX###########+++++++OOoo+########++++++++++o",
"oooXXXXX###########+++++++OOoo+++++++++++++++++ooo",
"oooOOOOO++#######+++++++++OOooo+++++++++++++++Oooo",
"oooOOOOO++#######+++++++++OOooo+++++++++++++++Oooo",
"oooOOOOOO.++++++++++++++OOOOoooOO+++++++++OOOOOooo",
"oooXXXXXX.++++++++++++++OOOOoooOO+++++++++XXXXXooo",
"oooXXXXXX...+++++++++oOOOOOOoooOOOOOO....XXXXXXooo",
"oooXXXXXX...+++++++++oOOOOOOoooOOOOOO....XXXXXXooo",
"oooXXXXXX                                XXXXXXooo",
"oooXXXXXX                                XXXXXXooo",
"oooXXXXXX                                XXXXXXooo"
};
