/* XPM */
static char *_e448205f6044b38878a85e85225e329ZDHSJM5QMUbmNhZ3[] = {
/* columns rows colors chars-per-pixel */
"50 50 6 1 ",
"  c None",
". c #141B1B",
"X c #E66A3A",
"o c #965340",
"O c #A3754E",
"+ c #F38C4C",
/* pixels */
"    ooooooo+++XXXX++++++++++++++XXXX+++ooooooo    ",
"    ooooooo+++XXXX++++++++++++++XXXX+++ooooooo    ",
"    ooooooo+++XXXX++++++++++++++XXXX+++ooooooo    ",
"    ooooooo+++XXXX++++++++++++++XXXX+++ooooooo    ",
"oooo++++++++++XXXX++++++++++++++XXXX++++++++++oooo",
"oooo++++++++++XXXX++++++++++++++XXXX++++++++++oooo",
"oooo++++++++++XXXX++++++++++++++XXXX++++++++++oooo",
"+++++++++++XXXOOOOXXXXXXXXXXXXXXOOOOXXX+++++++++++",
"+++++++++++XXXOOOOXXXXXXXXXXXXXXOOOOXXX+++++++++++",
"+++++++++++XXXOOOOXXXXXXXXXXXXXXOOOOXXX+++++++++++",
"+++++++++++XXXOOOOXXXXXXXXXXXXXXOOOOXXX+++++++++++",
"++++XXXXXXXXXXOOOOXXXXXXXXXXXXXXOOOOXXXXXXXXXX++++",
"++++XXXXXXXXXXOOOOXXXXXXXXXXXXXXOOOOXXXXXXXXXX++++",
"++++XXXXXXXXXXOOOOXXXXXXXXXXXXXXOOOOXXXXXXXXXX++++",
"XXXXXXXXXXX............................XXXXXXXXXXX",
"XXXXXXXXXXX............................XXXXXXXXXXX",
"XXXXXXXXXXX............................XXXXXXXXXXX",
"XXXXXXXXXXX............................XXXXXXXXXXX",
"XXXXXXX....................................XXXXXXX",
"XXXXXXX....................................XXXXXXX",
"XXXXXXX....................................XXXXXXX",
"XXXXXXX....................................XXXXXXX",
"XXXXXXX....................................XXXXXXX",
"XXXXXXX....................................XXXXXXX",
"XXXXXXX....................................XXXXXXX",
"XXXXXXX....................................XXXXXXX",
"XXXXXXX....................................XXXXXXX",
"XXXXXXX....................................XXXXXXX",
"XXXXXXX....................................XXXXXXX",
"XXXXXXX....................................XXXXXXX",
"XXXXXXX....................................XXXXXXX",
"XXXXXXX....................................XXXXXXX",
"XXXXXXX....................................XXXXXXX",
"XXXXXXX....................................XXXXXXX",
"XXXXXXX....................................XXXXXXX",
"XXXXXXX....................................XXXXXXX",
"XXXXXXX....................................XXXXXXX",
"XXXXXXX....................................XXXXXXX",
"XXXXXXX....................................XXXXXXX",
"XXXXXXX....................................XXXXXXX",
"XXXXXXX....................................XXXXXXX",
"XXXXXXX....................................XXXXXXX",
"XXXXXXX....................................XXXXXXX",
"OOOOOOO....oooooooooooooooooooooooooooo....OOOOOOO",
"OOOOOOO....oooooooooooooooooooooooooooo....OOOOOOO",
"OOOOOOO....oooooooooooooooooooooooooooo....OOOOOOO",
"XXXXXXXooooooooooooooooooooooooooooooooooooXXXXXXX",
"XXXXXXXooooooooooooooooooooooooooooooooooooXXXXXXX",
"XXXXXXXooooooooooooooooooooooooooooooooooooXXXXXXX",
"XXXXXXXooooooooooooooooooooooooooooooooooooXXXXXXX"
};
