/* XPM */
static char *b37921b158c246c3e2c5eec4c3db5cf9f5MHbLZQJWQz3tTK[] = {
/* columns rows colors chars-per-pixel */
"54 50 6 1 ",
"  c None",
". c #141B1B",
"X c #E66A3A",
"o c #965340",
"O c #A3754E",
"+ c #F38C4C",
/* pixels */
"      ooooooo++++XXXX++++++++++++XXXX+++oooooooo      ",
"      ooooooo++++XXXX++++++++++++XXXX+++oooooooo      ",
"      ooooooo++++XXXX++++++++++++XXXX+++oooooooo      ",
"   ooo+++++++++++XXXX++++++++++++XXXX+++++++++++ooo   ",
"   ooo+++++++++++XXXX++++++++++++XXXX+++++++++++ooo   ",
"   ooo+++++++++++XXXX++++++++++++XXXX+++++++++++ooo   ",
"ooo++++++++++XXXXOOOOXXXXXXXXXXXXOOOOXXX+++++++++++ooo",
"ooo++++++++++XXXXOOOOXXXXXXXXXXXXOOOOXXX+++++++++++ooo",
"ooo++++++++++XXXXOOOOXXXXXXXXXXXXOOOOXXX+++++++++++ooo",
"ooo++++++++++XXXXOOOOXXXXXXXXXXXXOOOOXXX+++++++++++ooo",
"ooo+++XXXXXXXXXXXOOOOXXXXXXXXXXXXOOOOXXXXXXXXXXX+++ooo",
"ooo+++XXXXXXXXXXXOOOOXXXXXXXXXXXXOOOOXXXXXXXXXXX+++ooo",
"ooo+++XXXXXXXXXXXOOOOXXXXXXXXXXXXOOOOXXXXXXXXXXX+++ooo",
"ooo+++XXXXXXXXXXXOOOOXXXXXXXXXXXXOOOOXXXXXXXXXXX+++ooo",
"oooXXXXXXXXXX...........................XXXXXXXXXXXooo",
"oooXXXXXXXXXX...........................XXXXXXXXXXXooo",
"oooXXXXXXXXXX...........................XXXXXXXXXXXooo",
"oooXXXXXXX...ooooooooooooooooooooooooooo....XXXXXXXooo",
"oooXXXXXXX...ooooooooooooooooooooooooooo....XXXXXXXooo",
"oooXXXXXXX...ooooooooooooooooooooooooooo....XXXXXXXooo",
"oooXXXXXXX...ooooOOOOoooOOOOOOoooOOOOooo....XXXXXXXooo",
"oooXXXXXXX...ooooOOOOoooOOOOOOoooOOOOooo....XXXXXXXooo",
"oooXXXXXXX...ooooOOOOoooOOOOOOoooOOOOooo....XXXXXXXooo",
"oooXXXXXXX...OOOOOOOOoooOOOOOOoooOOOOOOO....XXXXXXXooo",
"oooXXXXXXX...OOOOOOOOoooOOOOOOoooOOOOOOO....XXXXXXXooo",
"oooXXXXXXX...OOOOOOOOoooOOOOOOoooOOOOOOO....XXXXXXXooo",
"oooXXXXXXX...OOOOOOOOoooOOOOOOoooOOOOOOO....XXXXXXXooo",
"oooXXXXXXX...OOOOOOOOoooOOOOOOoooOOOOOOO....XXXXXXXooo",
"oooXXXXXXX...OOOOOOOOoooOOOOOOoooOOOOOOO....XXXXXXXooo",
"oooXXXXXXX...OOOOOOOOoooOOOOOOoooOOOOOOO....XXXXXXXooo",
"oooXXXXXXX...OOOOOOOOoooOOOOOOoooOOOOOOO....XXXXXXXooo",
"oooXXXXXXX...OOOOOOOOoooOOOOOOoooOOOOOOO....XXXXXXXooo",
"oooXXXXXXX...OOOOOOOOoooOOOOOOoooOOOOOOO....XXXXXXXooo",
"oooXXXXXXX...OOOOOOOOoooOOOOOOoooOOOOOOO....XXXXXXXooo",
"oooXXXXXXX...OOOOOOOOoooOOOOOOoooOOOOOOO....XXXXXXXooo",
"oooXXXXXXX...OOOOOOOOoooOOOOOOoooOOOOOOO....XXXXXXXooo",
"oooXXXXXXX...OOOOOOOOoooOOOOOOoooOOOOOOO....XXXXXXXooo",
"oooXXXXXXX...OOOOOOOOoooOOOOOOoooOOOOOOO....XXXXXXXooo",
"oooXXXXXXX...OOOOOOOOoooOOOOOOoooOOOOOOO....XXXXXXXooo",
"oooXXXXXXX...OOOOOOOOoooOOOOOOoooOOOOOOO....XXXXXXXooo",
"oooOOOOOOO...OOOOOOOOoooOOOOOOoooOOOOOOO....OOOOOOOooo",
"oooOOOOOOO...OOOOOOOOoooOOOOOOoooOOOOOOO....OOOOOOOooo",
"oooOOOOOOO...OOOOOOOOoooOOOOOOoooOOOOOOO....OOOOOOOooo",
"oooOOOOOOO...OOOOOOOOoooOOOOOOoooOOOOOOO....OOOOOOOooo",
"oooXXXXXXX...OOOOOOOOoooOOOOOOoooOOOOOOO....XXXXXXXooo",
"oooXXXXXXX...OOOOOOOOoooOOOOOOoooOOOOOOO....XXXXXXXooo",
"oooXXXXXXX...OOOOOOOOoooOOOOOOoooOOOOOOO....XXXXXXXooo",
"oooXXXXXXX                                  XXXXXXXooo",
"oooXXXXXXX                                  XXXXXXXooo",
"oooXXXXXXX                                  XXXXXXXooo"
};
