/* XPM */
static char *f498cbc6815349ddf8a38facfc670effFHUMZ2mhuiJQ2kSC[] = {
/* columns rows colors chars-per-pixel */
"50 50 2 1 ",
"  c #A8A129",
". c #ADBC3A",
/* pixels */
"..................................................",
"..................................................",
"..................................................",
"..................................................",
"..................................................",
"..................................................",
"..................................................",
"..................................................",
"..................................................",
".........................         ................",
".........................         ................",
".........................         ................",
"......................   .........   .............",
"......................   .........   .............",
"......................   .........   .............",
"......................   .........   .............",
"...................   .........          .........",
"...................   .........          .........",
"...................   .........          .........",
"............................         .............",
"............................         .............",
"............................         .............",
"..................................................",
"..................................................",
"..................................................",
"......             ...............................",
"......             ...............................",
"......             ...............................",
"...   .............   ............................",
"...   .............   ............................",
"...   .............   ............................",
"......   .............   .........................",
"......   .............   .........................",
"......   .............   .........................",
"......      ..........   .........................",
"......      ..........   .........................",
"......      ..........   .........................",
"...         ......................................",
"...         ......................................",
"...         ......................................",
"...         ......................................",
".........       ..................................",
".........       ..................................",
".........       ..................................",
"..................................................",
"..................................................",
"..................................................",
"..................................................",
"..................................................",
".................................................."
};
