/* XPM */
static char *e5f0e64bc15a4f58c18ff7d2c1803c752Sd5joxu8JNcbEsf[] = {
/* columns rows colors chars-per-pixel */
"48 50 7 1 ",
"  c None",
". c #141B1B",
"X c #543C52",
"o c #8F3E56",
"O c #E0394C",
"+ c #ABC2BC",
"@ c #F2EAF1",
/* pixels */
"           ..........................           ",
"           ..........................           ",
"           ..........................           ",
"           ..........................           ",
"       ....OOOOOOOOOOOOOOOOOOOOOOOOOO....       ",
"       ....OOOOOOOOOOOOOOOOOOOOOOOOOO....       ",
"       ....OOOOOOOOOOOOOOOOOOOOOOOOOO....       ",
"    ...ooooOOOOOOOOOOOOOOOOOOOOOOOOOOoooo...    ",
"    ...ooooOOOOOOOOOOOOOOOOOOOOOOOOOOoooo...    ",
"    ...ooooOOOOOOOOOOOOOOOOOOOOOOOOOOoooo...    ",
"    ...oooooooooooooooooooooooooooooooooo...    ",
"    ...oooooooooooooooooooooooooooooooooo...    ",
"    ...oooooooooooooooooooooooooooooooooo...    ",
"    ...@@@@@@@@@@@@@++++ooooooooooooooooo...    ",
"    ...@@@@@@@@@@@@@++++ooooooooooooooooo...    ",
"    ...@@@@@@@@@@@@@++++ooooooooooooooooo...    ",
"    ...@@@@@@@@@@@@@++++ooooooooooooooooo...    ",
"    ...@@@@@@@@@@@@@++++ooooooooooooooooo...    ",
"    ...@@@@@@@@@@@@@++++ooooooooooooooooo...    ",
"    ...@@@@@@@@@@@@@++++ooooooooooooooooo...    ",
"    ...+++++++++++++++++ooooooooooooooooo...    ",
"    ...+++++++++++++++++ooooooooooooooooo...    ",
"    ...+++++++++++++++++ooooooooooooooooo...    ",
"    ...+++++++++++++++++ooooooooooooooooo...    ",
"    .......@@@@@@.......ooooooooooooooooo...    ",
"    .......@@@@@@.......ooooooooooooooooo...    ",
"    ................OOOOooooooooooooooooo...    ",
"    ................OOOOooooooooooooooooo...    ",
"    ................OOOOooooooooooooooooo...    ",
"    ................OOOOooooooooooooooooo...    ",
"    ...OOOOOOOOOOOOOooooooooooooooooooooo...    ",
"    ...OOOOOOOOOOOOOooooooooooooooooooooo...    ",
"    ...OOOOOOOOOOOOOooooooooooooooooooooo...    ",
"       ....oooooooooooooooooooooooooo....       ",
"       ....oooooooooooooooooooooooooo....       ",
"       ....oooooooooooooooooooooooooo....       ",
"       ....oooooooooooooooooooooooooo....       ",
"           ..XXXXXXXXXXXXXXXXXXXXXX..           ",
"           ..XXXXXXXXXXXXXXXXXXXXXX..           ",
"           ..XXXXXXXXXXXXXXXXXXXXXX..           ",
"           ..oooo...XXXXXXXX...oooo..           ",
"           ..oooo...XXXXXXXX...oooo..           ",
"           ..oooo...XXXXXXXX...oooo..           ",
"           ..XXXX...oooooooo...XXXX..           ",
"           ..XXXX...oooooooo...XXXX..           ",
"           ..XXXX...oooooooo...XXXX..           ",
"             ....XXX........XXX....             ",
"             ....XXX........XXX....             ",
"             ....XXX........XXX....             ",
"             ....XXX........XXX....             "
};
