/* XPM */
static char *_28c3aebdfb94b52f2fa504f063c5394lw93G4AUJfKMBua1[] = {
/* columns rows colors chars-per-pixel */
"48 50 7 1 ",
"  c None",
". c #141B1B",
"X c #543C52",
"o c #8F3E56",
"O c #E0394C",
"+ c #ABC2BC",
"@ c #F2EAF1",
/* pixels */
"           ..........................           ",
"           ..........................           ",
"           ..........................           ",
"           ..........................           ",
"       ....OOOOOOOOOOOOOOOOOOOOOOOOOO....       ",
"       ....OOOOOOOOOOOOOOOOOOOOOOOOOO....       ",
"       ....OOOOOOOOOOOOOOOOOOOOOOOOOO....       ",
"    ...ooooOOOOOOOOOOOOOOOOOOOOOOOOOOoooo...    ",
"    ...ooooOOOOOOOOOOOOOOOOOOOOOOOOOOoooo...    ",
"    ...ooooOOOOOOOOOOOOOOOOOOOOOOOOOOoooo...    ",
"    ...oooooooooooooooooooooooooooooooooo...    ",
"    ...oooooooooooooooooooooooooooooooooo...    ",
"    ...oooooooooooooooooooooooooooooooooo...    ",
"    ...ooooooooooooooooo++++@@@@@@@@@@@@@...    ",
"    ...ooooooooooooooooo++++@@@@@@@@@@@@@...    ",
"    ...ooooooooooooooooo++++@@@@@@@@@@@@@...    ",
"    ...ooooooooooooooooo++++@@@@@@@@@@@@@...    ",
"    ...ooooooooooooooooo++++@@@@@@@@@@@@@...    ",
"    ...ooooooooooooooooo++++@@@@@@@@@@@@@...    ",
"    ...ooooooooooooooooo++++@@@@@@@@@@@@@...    ",
"    ...ooooooooooooooooo+++++++++++++++++...    ",
"    ...ooooooooooooooooo+++++++++++++++++...    ",
"    ...ooooooooooooooooo+++++++++++++++++...    ",
"    ...ooooooooooooooooo+++++++++++++++++...    ",
"    ...ooooooooooooooooo.......@@@@@@.......    ",
"    ...ooooooooooooooooo.......@@@@@@.......    ",
"    ...oooooooooooooooooOOOO................    ",
"    ...oooooooooooooooooOOOO................    ",
"    ...oooooooooooooooooOOOO................    ",
"    ...oooooooooooooooooOOOO................    ",
"    ...oooooooooooooooooooooOOOOOOOOOOOOO...    ",
"    ...oooooooooooooooooooooOOOOOOOOOOOOO...    ",
"    ...oooooooooooooooooooooOOOOOOOOOOOOO...    ",
"       ....oooooooooooooooooooooooooo....       ",
"       ....oooooooooooooooooooooooooo....       ",
"       ....oooooooooooooooooooooooooo....       ",
"       ....oooooooooooooooooooooooooo....       ",
"           ..XXXXXXXXXXXXXXXXXXXXXX..           ",
"           ..XXXXXXXXXXXXXXXXXXXXXX..           ",
"           ..XXXXXXXXXXXXXXXXXXXXXX..           ",
"           ..oooo...XXXXXXXX...oooo..           ",
"           ..oooo...XXXXXXXX...oooo..           ",
"           ..oooo...XXXXXXXX...oooo..           ",
"           ..XXXX...oooooooo...XXXX..           ",
"           ..XXXX...oooooooo...XXXX..           ",
"           ..XXXX...oooooooo...XXXX..           ",
"             ....XXX........XXX....             ",
"             ....XXX........XXX....             ",
"             ....XXX........XXX....             ",
"             ....XXX........XXX....             "
};
