/* XPM */
static char *result[] = {
/* columns rows colors chars-per-pixel */
"50 50 5 1 ",
"  c #141B1B",
". c #543C52",
"X c #8F3E56",
"o c #E0394C",
"O c None",
/* pixels */
"OOOOOOOOOOOOO                           OOOOOOOOOO",
"OOOOOOOOOOOOO                           OOOOOOOOOO",
"OOOOOOOOOOOOO                           OOOOOOOOOO",
"OOOOOOOOOO   ooooooooooooooooooooooooooo   OOOOOOO",
"OOOOOOOOOO   ooooooooooooooooooooooooooo   OOOOOOO",
"OOOOOOOOOO   ooooooooooooooooooooooooooo   OOOOOOO",
"OOOOOOOOOO   ooooooooooooooooooooooooooo   OOOOOOO",
"OOOOOOO   XXXoooooooooooooooooooooooooooXXX    OOO",
"OOOOOOO   XXXoooooooooooooooooooooooooooXXX    OOO",
"OOOOOOO   XXXoooooooooooooooooooooooooooXXX    OOO",
"OOOOOOO   XXXoooooooooooooooooooooooooooXXX    OOO",
"OOOOOOO   XXXoooooooooooooooooooooooooooXXX    OOO",
"OOOOOOO   XXXoooooooooooooooooooooooooooXXX    OOO",
"OOOOOOO   XXXoooooooooooooooooooooooooooXXX    OOO",
"OOOOOOO   XXXoooooooooooooooooooooooooooXXX    OOO",
"OOOOOOO   XXXoooooooooooooooooooooooooooXXX    OOO",
"OOOOOOO   XXXoooooooooooooooooooooooooooXXX    OOO",
"OOOOOOO   XXXXXXXooooooooooooooooooooXXXXXX    OOO",
"OOOOOOO   XXXXXXXooooooooooooooooooooXXXXXX    OOO",
"OOOOOOO   XXXXXXXooooooooooooooooooooXXXXXX    OOO",
"OOOOOOO   XXXXXXXXXXXXXXXXXXXXXXXXXXXXXXXXX    OOO",
"OOOOOOO   XXXXXXXXXXXXXXXXXXXXXXXXXXXXXXXXX    OOO",
"OOOOOOO   XXXXXXXXXXXXXXXXXXXXXXXXXXXXXXXXX    OOO",
"OOOOOOO   XXXXXXXXXXXXXXXXXXXXXXXXXXXXXXXXX    OOO",
"OOOOOOO   XXXXXXXXXXXXXXXXXXXXXXXXXXXXXXXXX    OOO",
"OOOOOOO   XXXXXXXXXXXXXXXXXXXXXXXXXXXXXXXXX    OOO",
"OOOOOOO   XXXXXXXXXXXXXXXXXXXXXXXXXXXXXXXXX    OOO",
"OOOOOOO   XXXXXXXXXXXXXXXXXXXXXXXXXXXXXXXXX    OOO",
"OOOOOOO   XXXXXXXXXXXXXXXXXXXXXXXXXXXXXXXXX    OOO",
"OOOOOOO   XXXXXXXXXXXXXXXXXXXXXXXXXXXXXXXXX    OOO",
"OOOOOOO   XXXXXXXXXXXXXXXXXXXXXXXXXXXXXXXXX    OOO",
"OOOOOOO   XXXXXXXXXXXXXXXXXXXXXXXXXXXXXXXXX    OOO",
"OOOOOOO   XXXXXXXXXXXXXXXXXXXXXXXXXXXXXXXXX    OOO",
"OOOOOOOOOO   XXXXXXXXXXXXXXXXXXXXXXXXXXX   OOOOOOO",
"OOOOOOOOOO   XXXXXXXXXXXXXXXXXXXXXXXXXXX   OOOOOOO",
"OOOOOOOOOO   XXXXXXXXXXXXXXXXXXXXXXXXXXX   OOOOOOO",
"OOOOOOOOOO   XXXXXXXXXXXXXXXXXXXXXXXXXXX   OOOOOOO",
"OOOOOOO      ...........................       OOO",
"OOOOOOO      ...........................       OOO",
"OOOOOOO      ...........................       OOO",
"OOO    ..........XXXXXXXXXXXXXXXXXXXX..........   ",
"OOO    ..........XXXXXXXXXXXXXXXXXXXX..........   ",
"OOO    ..........XXXXXXXXXXXXXXXXXXXX..........   ",
"OOO    ........................................   ",
"OOO    ........................................   ",
"OOO    ........................................   ",
"OOO    ........................................   ",
"OOOOOOO      ..........       ..........       OOO",
"OOOOOOO      ..........       ..........       OOO",
"OOOOOOO      ..........       ..........       OOO"
};
