/* XPM */
static char *_17ca29eeecd42d6bc028cfb0e1bcb32ECAiu3d8knZ6o1hv[] = {
/* columns rows colors chars-per-pixel */
"50 50 8 1 ",
"  c None",
". c #141B1B",
"X c #433737",
"o c #345A52",
"O c #4E484A",
"+ c #4A7F4B",
"@ c #965746",
"# c #74A334",
/* pixels */
"                                                  ",
"                      ......                      ",
"                      ......                      ",
"                   ...++++++...                   ",
"                   ...++++++...                   ",
"                 ..+++######+++..                 ",
"                .++############++.                ",
"                .++############++.                ",
"              ..##################..              ",
"           ...######################...           ",
"           ...######################...           ",
"        ...+#########################++...        ",
" .......+++############################+++....... ",
" .......+++############################+++....... ",
" ..++##################################++####++.. ",
" ..++##################################++####++.. ",
" ..+++######++######################+#######+++.. ",
" ..+++++++++####+########+#####++####++###+++++.. ",
" ..+++++++++####+########+#####++####++###+++++.. ",
"   ..++++++++++++###++###+#####++++++####++++..   ",
"     ...ooo#####++++######+++++++#########...     ",
"     ...ooo#####++++######+++++++#########...     ",
"     .ooo#################################oo.     ",
"     .ooo#################################oo.     ",
".....++++#########################++########+.....",
".++++++++#########################++########+++++.",
".++++++++++++++++#########++######+++++++++++++++.",
".++++++++++++++++#########++######+++++++++++++++.",
".++++++++++++++++++#####++++++####+++++++++++++++.",
".++++++++++++++++++#####++++++####+++++++++++++++.",
" ..++++++++o++++++++##++++++++++++++ooo++++++++.. ",
"   ..oooooo++++++++++++++++++++++++++oooooooo..   ",
"   ..oooooo++++++++++++++++++++++++++oooooooo..   ",
"     .ooooo+++++++++oo+++++++++++++++ooooooo.     ",
"   ..oooooo++++++ooo+++++++++++++++++oooooooo..   ",
"   ..oooooo++++++ooo+++++++++++++++++oooooooo..   ",
"   ..oooooooooooooo+++++++++++ooooooooooooooo..   ",
"   ......ooooooooooo++++++++++ooooooooooo......   ",
"   ......ooooooooooo++++++++++ooooooooooo......   ",
"     .OOOXXXOOOOOooooo++++++oooooXXXXXXXXXXX.     ",
"     .OOOXXXOOOOOooooo++++++oooooXXXXXXXXXXX.     ",
"     .OOOOO@OOOOOOOOoooo++ooooXXXOOOXOOOOOOO.     ",
"   ..@@@O@@@@@@@@@@@@@ooooooOO@OOOOOXOOXXOOOO..   ",
"   ..@@@O@@@@@@@@@@@@@ooooooOO@OOOOOXOOXXOOOO..   ",
"   ..@@@@@@@@@@@@@@@@@@@@O@@OO@OOOOOXOOOOOOOO..   ",
"     @@@@@@@@@@@@@@@@@@@@O@@@@@OOOOOOOOOOOOOO     ",
"     @@@@@@@@@@@@@@@@@@@@O@@@@@OOOOOOOOOOOOOO     ",
"         @@@@@@@@@@@@@@@@@@@@@OOOOOOOOOOO         ",
"         @@@@@@@@@@@@@@@@@@@@@OOOOOOOOOOO         ",
"                                                  "
};
